<svg width="18" height="18" viewBox="0 0 18 18" fill="none" xmlns="http://www.w3.org/2000/svg">
<path fill-rule="evenodd" clip-rule="evenodd" d="M1.15489 6.73046L2.78556 0.638706C2.84503 0.419567 2.989 0.231761 3.18619 0.115921C3.38337 0.00322557 3.6181 -0.0280786 3.84033 0.0313984L7.09222 0.901666L6.06874 1.92532L5.02649 1.64672C4.96702 1.63106 4.90129 1.63733 4.84809 1.66863C4.79488 1.69994 4.75419 1.75002 4.73854 1.81263C4.69159 1.99419 4.57265 2.14759 4.4099 2.24149C4.24715 2.3354 4.05623 2.36045 3.87469 2.31036C3.74949 2.27593 3.62117 2.35106 3.58674 2.47627L2.87939 5.11204L1.25809 6.73046H1.14854L1.15489 6.73046ZM1.92798 6.73046L8.40692 0.250434C8.56968 0.0907813 8.78876 0 9.01726 0C9.24576 0 9.46484 0.0907813 9.62445 0.250434L11.7716 2.39795L10.648 3.04596L9.84359 2.24144C9.79977 2.19762 9.7403 2.17257 9.67771 2.17257C9.61511 2.17257 9.55564 2.19762 9.51182 2.24144C9.38037 2.37292 9.20196 2.44804 9.01416 2.44804C8.82637 2.44804 8.64797 2.37291 8.51651 2.24144C8.42574 2.15066 8.27551 2.15066 8.18475 2.24144L3.69952 6.72741H1.92799L1.92798 6.73046ZM5.20811 6.73046L12.3255 2.62014C12.5226 2.50744 12.7574 2.47614 12.9796 2.53562C13.1987 2.5951 13.3865 2.73909 13.5023 2.93631L15.6933 6.73048H14.2473L13.1988 4.91484C13.1675 4.86162 13.1174 4.82093 13.0579 4.80527C12.9985 4.78962 12.9327 4.79901 12.8795 4.83032C12.7168 4.92423 12.5259 4.94927 12.3443 4.89919C12.1628 4.85223 12.0094 4.73327 11.9155 4.5705C11.8498 4.4578 11.7058 4.42024 11.5963 4.48597L7.70898 6.73046H5.20506L5.20811 6.73046ZM8.6511 6.73046L11.6496 4.99934C11.7998 5.17151 12.0001 5.29361 12.2255 5.3562C12.4509 5.41568 12.6856 5.40942 12.9016 5.33428L13.7091 6.73046L8.6511 6.73046ZM5.68706 2.3072L3.54932 4.4453L3.99063 2.79869C4.21911 2.81121 4.44758 2.76112 4.6479 2.64217C4.84821 2.52634 5.00784 2.35417 5.11112 2.1507L5.68702 2.30409L5.68706 2.3072ZM10.2254 3.29014L4.49139 6.60208L8.36626 2.72656C8.55718 2.85178 8.78253 2.92065 9.01415 2.92065C9.24578 2.92065 9.47111 2.85178 9.66205 2.72656L10.2254 3.29014ZM14.8795 4.38265H14.9483C15.5962 4.38265 16.122 4.90856 16.122 5.55657V6.49569V6.53013L14.8826 4.38261L14.8795 4.38265ZM0.694848 6.62714C0.566523 6.57079 0.447581 6.4894 0.344299 6.3861C0.125196 6.16696 0 5.86644 0 5.55655C0 5.2435 0.122067 4.94611 0.344299 4.72699C0.566531 4.50787 0.863872 4.38263 1.17372 4.38263H1.29578L0.694848 6.62714ZM17.0611 15.0261V16.8261C17.0611 17.4741 16.5352 18 15.8874 18H1.48981C1.09543 18 0.716722 17.8435 0.438166 17.5649C0.15961 17.2863 0.00310487 16.9075 0.00310487 16.513V6.70546L0.0156245 6.71798C0.322345 7.02475 0.741761 7.20005 1.17682 7.20005H15.8875C16.5353 7.20005 17.0612 7.72596 17.0612 8.37397V10.487H13.3836C12.1317 10.487 11.1145 11.5044 11.1145 12.7566C11.1145 14.0087 12.1317 15.0261 13.3836 15.0261H17.0611ZM11.5837 12.7566C11.5837 11.7611 12.3881 10.9566 13.3834 10.9566H17.7653C17.8936 10.9566 18 11.063 18 11.1913V14.3218C18 14.4501 17.8936 14.5566 17.7653 14.5566H13.3834C12.3881 14.5566 11.5837 13.752 11.5837 12.7566ZM13.3834 12.287C13.1236 12.287 12.9139 12.4967 12.9139 12.7566C12.9139 13.0164 13.1236 13.2261 13.3834 13.2261C13.6432 13.2261 13.8529 13.0164 13.8529 12.7566C13.8529 12.4967 13.6432 12.287 13.3834 12.287Z" fill="white"/>
</svg>
