<svg width="15" height="14" viewBox="0 0 15 14" fill="none" xmlns="http://www.w3.org/2000/svg">
<path fill-rule="evenodd" clip-rule="evenodd" d="M14.1776 5.59359L9.65921 9.14725C9.56977 9.23229 9.45528 9.2861 9.33276 9.30067C9.24052 9.32508 9.14324 9.32263 9.05235 9.29359C8.96146 9.26455 8.88072 9.21013 8.8197 9.13675L6.33019 6.67042L3.83485 9.14725C3.72378 9.2569 3.57405 9.31838 3.41801 9.31838C3.26198 9.31838 3.11224 9.2569 3.00118 9.14725C2.89188 9.03786 2.83044 8.88951 2.83044 8.73483C2.83044 8.58015 2.89188 8.43181 3.00118 8.32242L5.91044 5.43492C6.02271 5.32532 6.17333 5.26397 6.33019 5.26397C6.48705 5.26397 6.63768 5.32532 6.74995 5.43492L9.27447 7.93917L13.6645 4.45842C13.731 4.41783 13.8055 4.39225 13.8829 4.38346C13.9603 4.37468 14.0386 4.38292 14.1124 4.40759C14.1863 4.43225 14.2539 4.47275 14.3105 4.52627C14.3671 4.57979 14.4113 4.64503 14.44 4.71742C14.5077 4.8708 14.5185 5.04331 14.4704 5.20393C14.4223 5.36455 14.3184 5.50272 14.1776 5.59359ZM13.9094 12.8333C14.0641 12.8333 14.2124 12.8948 14.3217 13.0042C14.4311 13.1136 14.4925 13.262 14.4925 13.4167C14.4925 13.5714 14.4311 13.7197 14.3217 13.8291C14.2124 13.9385 14.0641 14 13.9094 14H1.08302C0.928393 14 0.780073 13.9385 0.670735 13.8291C0.561398 13.7197 0.5 13.5714 0.5 13.4167V0.583333C0.5 0.428624 0.561398 0.28025 0.670735 0.170854C0.780073 0.0614577 0.928393 0 1.08302 0C1.23765 0 1.38597 0.0614577 1.4953 0.170854C1.60464 0.28025 1.66604 0.428624 1.66604 0.583333V12.8333H13.9094Z" fill="white"/>
</svg>
